<svg xmlns="http://www.w3.org/2000/svg" xmlns:xlink="http://www.w3.org/1999/xlink" width="378" zoomAndPan="magnify" viewBox="0 0 282.96 283.499989" height="378" preserveAspectRatio="xMidYMid meet" version="1.0"><defs><clipPath id="bee9e8f852"><path d="M 0.230469 0 L 282.691406 0 L 282.691406 282.953125 L 0.230469 282.953125 Z M 0.230469 0 " clip-rule="nonzero"/></clipPath><clipPath id="c1e6311d25"><path d="M 141.707031 0 C 63.570312 0 0.230469 63.339844 0.230469 141.476562 C 0.230469 219.613281 63.570312 282.953125 141.707031 282.953125 C 219.839844 282.953125 283.183594 219.613281 283.183594 141.476562 C 283.183594 63.339844 219.839844 0 141.707031 0 Z M 141.707031 0 " clip-rule="nonzero"/></clipPath></defs><g clip-path="url(#bee9e8f852)"><g clip-path="url(#c1e6311d25)"><path fill="#ffffff" d="M 32.757812 97.316406 C 27.042969 111.398438 24.1875 126.121094 24.1875 141.476562 C 24.1875 167.105469 31.730469 190.21875 46.8125 210.820312 L 8.152344 239.125 C -2.050781 225.191406 -9.871094 210.054688 -15.304688 193.71875 C -20.921875 176.832031 -23.730469 159.417969 -23.730469 141.476562 C -23.730469 119.886719 -19.699219 99.160156 -11.640625 79.300781 Z M 59.878906 225.828125 C 70.675781 236.304688 82.984375 244.398438 96.804688 250.121094 C 111.101562 256.039062 126.070312 258.996094 141.707031 258.996094 C 151.464844 258.996094 161.023438 257.824219 170.382812 255.480469 L 182.027344 301.957031 C 168.847656 305.261719 155.40625 306.910156 141.707031 306.910156 C 119.722656 306.910156 98.648438 302.738281 78.480469 294.394531 C 59.015625 286.339844 41.695312 274.945312 26.515625 260.21875 Z M 189.148438 249.035156 C 207.574219 240.890625 222.925781 228.777344 235.203125 212.6875 C 247.65625 196.367188 255.289062 178.078125 258.101562 157.816406 L 305.5625 164.40625 C 301.59375 192.980469 290.839844 218.761719 273.296875 241.753906 C 256.042969 264.367188 234.445312 281.402344 208.511719 292.863281 Z M 259.171875 137.867188 C 258.550781 117.203125 252.890625 98.078125 242.1875 80.492188 C 231.757812 63.351562 217.867188 49.757812 200.511719 39.703125 L 224.53125 -1.757812 C 248.929688 12.375 268.460938 31.492188 283.121094 55.585938 C 298.207031 80.382812 306.191406 107.328125 307.066406 136.425781 Z M 182.546875 31.242188 C 169.445312 26.386719 155.832031 23.957031 141.707031 23.957031 C 120.953125 23.957031 101.621094 29.050781 83.710938 39.234375 C 66.3125 49.132812 52.332031 62.589844 41.769531 79.609375 L 1.058594 54.339844 C 15.90625 30.414062 35.5625 11.496094 60.023438 -2.414062 C 85.277344 -16.777344 112.503906 -23.957031 141.707031 -23.957031 C 161.5625 -23.957031 180.726562 -20.535156 199.203125 -13.6875 Z M 182.546875 31.242188 " fill-opacity="1" fill-rule="nonzero"/></g></g></svg>